<svg xmlns="http://www.w3.org/2000/svg" version="1.1" xmlns:xlink="http://www.w3.org/1999/xlink" xmlns:svgjs="http://svgjs.dev/svgjs" width="765" height="625" viewBox="0 0 300 300" class="svg-animations " style="background-color: rgb(255, 255, 255);"><svg viewBox="0 0 134 139" width="60" height="60" x="211.73500061035156" y="120" style="fill: rgb(0, 0, 0);"><svg width="134" height="134" viewBox="0 0 134 134" xmlns="http://www.w3.org/2000/svg">
<g clip-path="url(#clip0)">
<path d="M56.6399 25.2617L67.0745 35.6963L84.966 17.8048C88.2416 14.5293 93.614 14.5293 96.9019 17.8048C100.177 21.0804 100.177 26.4528 96.9019 29.7407L73.0425 53.6002C69.7669 56.8757 64.3945 56.8757 61.1066 53.6002L44.704 37.1976C41.4284 33.922 41.4284 28.5496 44.704 25.2617C47.9919 21.9861 53.3519 21.9861 56.6399 25.2617Z"/>
<path d="M67.0001 17.1222C71.7283 17.1222 75.5612 13.2893 75.5612 8.56111C75.5612 3.83294 71.7283 0 67.0001 0C62.2719 0 58.439 3.83294 58.439 8.56111C58.439 13.2893 62.2719 17.1222 67.0001 17.1222Z"/>
<path d="M77.3603 108.739L66.9256 98.3039L49.0217 116.195C45.7462 119.471 40.3738 119.471 37.0858 116.195C33.8103 112.92 33.8103 107.547 37.0858 104.259L60.9577 80.4C64.2332 77.1245 69.6056 77.1245 72.8936 80.4L89.2962 96.8026C92.5717 100.078 92.5717 105.451 89.2962 108.739C86.0082 112.014 80.6482 112.014 77.3603 108.739Z"/>
<path d="M67.0001 134C71.7283 134 75.5612 130.167 75.5612 125.439C75.5612 120.711 71.7283 116.878 67.0001 116.878C62.2719 116.878 58.439 120.711 58.439 125.439C58.439 130.167 62.2719 134 67.0001 134Z"/>
<path d="M108.739 56.6397L98.3039 67.0743L116.195 84.9658C119.471 88.2413 119.471 93.6137 116.195 96.9017C112.92 100.177 107.547 100.177 104.259 96.9017L80.4 73.0422C77.1245 69.7667 77.1245 64.3943 80.4 61.1063L96.8026 44.7037C100.078 41.4282 105.451 41.4282 108.739 44.7037C112.014 47.9917 112.014 53.3517 108.739 56.6397Z"/>
<path d="M125.439 75.5612C130.167 75.5612 134 71.7283 134 67.0001C134 62.2719 130.167 58.439 125.439 58.439C120.711 58.439 116.878 62.2719 116.878 67.0001C116.878 71.7283 120.711 75.5612 125.439 75.5612Z"/>
<path d="M25.2614 77.3603L35.696 66.9256L17.8046 49.0218C14.529 45.7462 14.529 40.3738 17.8046 37.0858C21.0801 33.7979 26.4525 33.8103 29.7405 37.0858L53.5999 60.9577C56.8755 64.2332 56.8755 69.6056 53.5999 72.8936L37.1973 89.2962C33.9218 92.5718 28.5494 92.5718 25.2614 89.2962C21.9859 86.0082 21.9859 80.6482 25.2614 77.3603Z"/>
<path d="M8.56111 75.5612C13.2893 75.5612 17.1222 71.7283 17.1222 67.0001C17.1222 62.2719 13.2893 58.439 8.56111 58.439C3.83294 58.439 0 62.2719 0 67.0001C0 71.7283 3.83294 75.5612 8.56111 75.5612Z"/>
</g>
</svg></svg><svg x="38.26499938964844" y="130" style="fill: rgb(0, 0, 0);"><path d="M17.82 26L14.30 26L14.30 14.48Q13.09 13.90 11.54 13.50Q9.98 13.10 8.38 12.91L8.38 12.91Q8 14.32 7.68 15.81Q7.36 17.30 7.14 18.75Q6.91 20.21 6.78 21.60Q6.66 22.99 6.66 24.24L6.66 24.24Q6.66 25.65 6.86 26.99Q7.07 28.34 7.78 29.65L7.78 29.65Q7.04 29.65 6.24 29.49Q5.44 29.33 4.77 28.77Q4.10 28.21 3.66 27.17Q3.23 26.13 3.23 24.37L3.23 24.37Q3.23 23.25 3.39 21.87Q3.55 20.50 3.87 18.99Q4.19 17.49 4.66 15.90Q5.12 14.32 5.70 12.78L5.70 12.78Q4.77 12.82 3.95 12.94Q3.14 13.07 2.54 13.31Q1.95 13.55 1.60 13.87Q1.25 14.19 1.25 14.58L1.25 14.58Q1.25 14.70 1.28 14.77L1.28 14.77Q2.11 15.02 2.11 15.82L2.11 15.82Q2.11 16.40 1.70 16.62Q1.28 16.85 0.80 16.85L0.80 16.85Q0 16.85-0.69 16.38Q-1.38 15.92-1.38 14.77L-1.38 14.77Q-1.38 14-0.91 13.39Q-0.45 12.78 0.37 12.35Q1.18 11.92 2.29 11.70Q3.39 11.47 4.70 11.47L4.70 11.47Q5.06 11.47 5.44 11.49Q5.82 11.50 6.21 11.54L6.21 11.54Q7.01 9.62 8 7.87Q8.99 6.13 10.14 4.83Q11.30 3.54 12.58 2.77Q13.86 2 15.26 2L15.26 2Q15.74 2 16.46 2.10Q17.18 2.19 17.82 2.45L17.82 2.45L17.82 26ZM8.70 11.86L8.70 11.86Q10.30 12.14 11.78 12.58Q13.25 13.01 14.30 13.52L14.30 13.52L14.30 3.54Q13.50 3.60 12.74 4.26Q11.97 4.91 11.25 6.03Q10.53 7.15 9.89 8.64Q9.25 10.13 8.70 11.86ZM20.77 10L23.97 10L23.97 12.69Q24.35 12.11 24.72 11.60Q25.09 11.09 25.54 10.70Q25.98 10.32 26.53 10.08Q27.07 9.84 27.74 9.84L27.74 9.84Q28.83 9.84 29.34 10.40Q29.86 10.96 29.86 11.76L29.86 11.76Q29.86 12.24 29.70 12.56Q29.54 12.88 29.31 13.07Q29.09 13.26 28.83 13.34Q28.58 13.42 28.38 13.42L28.38 13.42Q28.10 13.42 27.92 13.30Q27.74 13.17 27.57 13.02Q27.39 12.88 27.17 12.75Q26.94 12.62 26.59 12.62L26.59 12.62Q25.86 12.62 25.18 13.14Q24.51 13.65 23.97 14.22L23.97 14.22L23.97 26L20.77 26L20.77 10ZM31.55 5.58L34.75 5.14L34.75 10L37.22 10L37.22 11.12L34.75 11.12L34.75 20.88Q34.75 21.26 34.78 21.76Q34.82 22.26 34.96 22.70Q35.10 23.15 35.41 23.46Q35.71 23.76 36.26 23.76L36.26 23.76Q37.12 23.76 37.90 22.90Q38.69 22.03 39.14 20.27L39.14 20.27L40.32 20.27Q39.78 22.29 39.15 23.46Q38.53 24.62 37.86 25.23Q37.18 25.84 36.53 26.02Q35.87 26.19 35.33 26.19L35.33 26.19Q34.18 26.19 33.44 25.76Q32.70 25.33 32.29 24.66Q31.87 23.98 31.71 23.17Q31.55 22.35 31.55 21.55L31.55 21.55L31.55 11.12L30.46 11.12L30.46 10L31.55 10L31.55 5.58ZM52.22 5.49L55.68 5.01L55.68 23.50Q56.29 23.95 56.85 24.14Q57.41 24.34 57.92 24.34L57.92 24.34Q59.17 24.34 60.02 23.42Q60.86 22.51 61.41 21.06Q61.95 19.60 62.19 17.81Q62.43 16.02 62.43 14.29L62.43 14.29Q62.43 11.31 62.02 9.20Q61.60 7.09 60.67 5.74Q59.74 4.40 58.27 3.78Q56.80 3.15 54.72 3.15L54.72 3.15Q53.28 3.15 51.97 3.60Q50.66 4.05 49.66 4.90Q48.67 5.74 48.08 6.98Q47.49 8.21 47.49 9.78L47.49 9.78Q47.49 10.70 47.70 11.34Q47.90 11.98 48.18 12.40Q48.45 12.82 48.75 13.06Q49.06 13.30 49.25 13.42L49.25 13.42Q47.30 13.42 46.18 12.53Q45.06 11.63 45.06 9.52L45.06 9.52Q45.06 8.05 45.82 6.67Q46.59 5.30 47.95 4.27Q49.31 3.25 51.15 2.62Q52.99 2 55.17 2L55.17 2Q58.24 2 60.35 3.04Q62.46 4.08 63.78 5.79Q65.09 7.50 65.66 9.71Q66.24 11.92 66.24 14.26L66.24 14.26Q66.24 16.53 65.78 18.70Q65.31 20.88 64.50 22.59Q63.68 24.30 62.56 25.36Q61.44 26.42 60.10 26.42L60.10 26.42Q59.14 26.42 58.05 25.97Q56.96 25.52 55.68 24.56L55.68 24.56L55.68 26L52.22 26L52.22 5.49ZM68.54 10L71.74 10L71.74 20.88Q71.74 21.20 71.78 21.68Q71.81 22.16 71.95 22.62Q72.10 23.09 72.38 23.42Q72.67 23.76 73.18 23.76L73.18 23.76Q74.75 23.76 75.49 20.27L75.49 20.27L76.67 20.27Q76.32 22.29 75.78 23.46Q75.23 24.62 74.62 25.23Q74.02 25.84 73.38 26.02Q72.74 26.19 72.22 26.19L72.22 26.19Q71.10 26.19 70.40 25.76Q69.70 25.33 69.28 24.66Q68.86 23.98 68.70 23.15Q68.54 22.32 68.54 21.55L68.54 21.55L68.54 10ZM67.97 5.39L67.97 5.39Q67.97 4.53 68.58 3.89Q69.18 3.25 70.08 3.25L70.08 3.25Q70.94 3.25 71.58 3.89Q72.22 4.53 72.22 5.39L72.22 5.39Q72.22 6.29 71.58 6.90Q70.94 7.50 70.08 7.50L70.08 7.50Q69.18 7.50 68.58 6.90Q67.97 6.29 67.97 5.39ZM75.46 10L78.66 10L78.66 12.69Q79.04 12.11 79.41 11.60Q79.78 11.09 80.22 10.70Q80.67 10.32 81.22 10.08Q81.76 9.84 82.43 9.84L82.43 9.84Q83.52 9.84 84.03 10.40Q84.54 10.96 84.54 11.76L84.54 11.76Q84.54 12.24 84.38 12.56Q84.22 12.88 84.00 13.07Q83.78 13.26 83.52 13.34Q83.26 13.42 83.07 13.42L83.07 13.42Q82.78 13.42 82.61 13.30Q82.43 13.17 82.26 13.02Q82.08 12.88 81.86 12.75Q81.63 12.62 81.28 12.62L81.28 12.62Q80.54 12.62 79.87 13.14Q79.20 13.65 78.66 14.22L78.66 14.22L78.66 26L75.46 26L75.46 10ZM96.22 14L96.22 14Q96.22 16.24 94.38 17.74Q92.54 19.25 89.28 19.60L89.28 19.60Q89.41 20.88 89.74 21.68Q90.08 22.48 90.56 22.94Q91.04 23.41 91.66 23.58Q92.29 23.76 92.96 23.76L92.96 23.76Q94.50 23.76 95.84 22.96Q97.18 22.16 98.02 20.27L98.02 20.27L99.04 20.27Q98.62 21.46 97.89 22.53Q97.15 23.60 96.16 24.42Q95.17 25.23 94.02 25.71Q92.86 26.19 91.65 26.19L91.65 26.19Q90.53 26.19 89.49 25.81Q88.45 25.42 87.65 24.54Q86.85 23.66 86.35 22.26Q85.86 20.85 85.86 18.80L85.86 18.80Q85.86 17.46 86.16 15.89Q86.46 14.32 87.18 12.98Q87.90 11.63 89.07 10.74Q90.24 9.84 91.97 9.84L91.97 9.84Q92.77 9.84 93.52 10.02Q94.27 10.19 94.88 10.66Q95.49 11.12 95.86 11.92Q96.22 12.72 96.22 14ZM89.25 18.35L89.25 18.35Q91.52 18 92.85 16.75Q94.18 15.50 94.18 13.68L94.18 13.68Q94.18 12.46 93.76 11.94Q93.34 11.41 92.58 11.41L92.58 11.41Q91.74 11.41 91.12 12.05Q90.50 12.69 90.08 13.70Q89.66 14.70 89.46 15.94Q89.25 17.17 89.25 18.35ZM105.25 14.90L105.25 14.90Q105.50 14.67 105.65 14.18Q105.79 13.68 105.79 13.23L105.79 13.23Q105.79 12.50 105.33 12.02Q104.86 11.54 104.03 11.54L104.03 11.54Q103.17 11.54 102.59 12.18Q102.02 12.82 101.66 13.79Q101.31 14.77 101.17 15.97Q101.02 17.17 101.02 18.32L101.02 18.32Q101.02 20.02 101.33 21.07Q101.63 22.13 102.14 22.72Q102.66 23.31 103.34 23.54Q104.03 23.76 104.80 23.76L104.80 23.76Q106.50 23.76 107.66 22.91Q108.83 22.06 109.66 20.27L109.66 20.27L110.75 20.27Q110.37 21.46 109.66 22.53Q108.96 23.60 108.03 24.42Q107.10 25.23 106.02 25.71Q104.93 26.19 103.74 26.19L103.74 26.19Q102.62 26.19 101.54 25.81Q100.45 25.42 99.58 24.54Q98.72 23.66 98.18 22.24Q97.63 20.82 97.63 18.74L97.63 18.74Q97.63 17.39 97.87 15.84Q98.11 14.29 98.77 12.96Q99.42 11.63 100.58 10.74Q101.73 9.84 103.55 9.84L103.55 9.84Q105.57 9.84 106.62 10.82Q107.68 11.79 107.68 13.68L107.68 13.68Q107.68 14.48 107.38 15.02Q107.07 15.57 106.43 15.57L106.43 15.57Q105.73 15.57 105.25 14.90ZM109.66 5.58L112.86 5.14L112.86 10L115.33 10L115.33 11.12L112.86 11.12L112.86 20.88Q112.86 21.26 112.90 21.76Q112.93 22.26 113.07 22.70Q113.22 23.15 113.52 23.46Q113.82 23.76 114.37 23.76L114.37 23.76Q115.23 23.76 116.02 22.90Q116.80 22.03 117.25 20.27L117.25 20.27L118.43 20.27Q117.89 22.29 117.26 23.46Q116.64 24.62 115.97 25.23Q115.30 25.84 114.64 26.02Q113.98 26.19 113.44 26.19L113.44 26.19Q112.29 26.19 111.55 25.76Q110.82 25.33 110.40 24.66Q109.98 23.98 109.82 23.17Q109.66 22.35 109.66 21.55L109.66 21.55L109.66 11.12L108.58 11.12L108.58 10L109.66 10L109.66 5.58ZM123.04 9.84L123.04 9.84Q124.29 9.84 125.18 10.22Q126.08 10.61 126.66 11.30Q127.23 11.98 127.57 12.91Q127.90 13.84 128.06 14.90L128.06 14.90L128.26 14.90Q129.60 14.90 130.72 14.35Q131.84 13.81 132.64 12.98L132.64 12.98L133.12 13.84Q132.48 14.86 131.09 15.54Q129.70 16.21 128.22 16.46L128.22 16.46Q128.22 16.78 128.24 17.10Q128.26 17.42 128.26 17.78L128.26 17.78Q128.26 21.71 126.82 23.95Q125.38 26.19 122.78 26.19L122.78 26.19Q121.73 26.19 120.66 25.81Q119.58 25.42 118.72 24.53Q117.86 23.63 117.33 22.22Q116.80 20.82 116.80 18.74L116.80 18.74Q116.80 17.33 117.10 15.76Q117.41 14.19 118.13 12.88Q118.85 11.57 120.05 10.70Q121.25 9.84 123.04 9.84ZM123.36 23.76L123.36 23.76Q125.06 23.76 125.86 22.08Q126.66 20.40 126.66 17.33L126.66 17.33Q126.66 17.14 126.66 16.94Q126.66 16.75 126.62 16.56L126.62 16.56Q125.70 16.50 125.30 16.14Q124.90 15.79 124.90 14.96L124.90 14.96Q124.90 14.22 125.22 13.92Q125.54 13.62 126.18 13.58L126.18 13.58Q125.79 12.46 125.20 12.03Q124.61 11.60 123.87 11.60L123.87 11.60Q122.88 11.60 122.19 12.26Q121.50 12.91 121.07 13.94Q120.64 14.96 120.45 16.19Q120.26 17.42 120.26 18.61L120.26 18.61Q120.26 20.18 120.54 21.17Q120.83 22.16 121.28 22.74Q121.73 23.31 122.27 23.54Q122.82 23.76 123.36 23.76ZM130.59 10L133.79 10L133.79 12.69Q134.18 12.11 134.54 11.60Q134.91 11.09 135.36 10.70Q135.81 10.32 136.35 10.08Q136.90 9.84 137.57 9.84L137.57 9.84Q138.66 9.84 139.17 10.40Q139.68 10.96 139.68 11.76L139.68 11.76Q139.68 12.24 139.52 12.56Q139.36 12.88 139.14 13.07Q138.91 13.26 138.66 13.34Q138.40 13.42 138.21 13.42L138.21 13.42Q137.92 13.42 137.74 13.30Q137.57 13.17 137.39 13.02Q137.22 12.88 136.99 12.75Q136.77 12.62 136.42 12.62L136.42 12.62Q135.68 12.62 135.01 13.14Q134.34 13.65 133.79 14.22L133.79 14.22L133.79 26L130.59 26L130.59 10ZM148.96 10L152.16 10L152.16 25.33Q152.96 25.07 153.58 24.75Q154.21 24.43 154.67 23.89Q155.14 23.34 155.44 22.48Q155.74 21.62 155.90 20.27L155.90 20.27L157.09 20.27Q156.83 21.97 156.43 23.04Q156.03 24.11 155.44 24.77Q154.85 25.42 154.03 25.79Q153.22 26.16 152.16 26.48L152.16 26.48L152.16 28.53Q152.16 30.03 151.84 31.07Q151.52 32.11 150.96 32.77Q150.40 33.42 149.68 33.71Q148.96 34 148.16 34L148.16 34Q146.56 34 145.66 33.09Q144.77 32.18 144.77 30.86L144.77 30.86Q144.77 30.03 145.14 29.36Q145.50 28.69 146.10 28.13Q146.69 27.57 147.44 27.14Q148.19 26.70 148.96 26.38L148.96 26.38L148.96 24.37Q148.32 25.30 147.50 25.74Q146.69 26.19 145.86 26.19L145.86 26.19Q144.93 26.19 144.10 25.94Q143.26 25.68 142.66 25.09Q142.05 24.50 141.70 23.55Q141.34 22.61 141.34 21.23L141.34 21.23L141.34 10L144.54 10L144.54 20.88Q144.54 22.45 145.09 23.10Q145.63 23.76 146.46 23.76L146.46 23.76Q146.91 23.76 147.36 23.54Q147.81 23.31 148.16 22.88Q148.51 22.45 148.74 21.84Q148.96 21.23 148.96 20.43L148.96 20.43L148.96 10ZM147.55 32.34L147.55 32.34Q148.42 32.34 148.69 31.68Q148.96 31.02 148.96 29.90L148.96 29.90L148.96 27.66Q147.36 28.40 146.69 29.12Q146.02 29.84 146.02 30.74L146.02 30.74Q146.02 31.47 146.42 31.90Q146.82 32.34 147.55 32.34Z"/></svg><text fill="#ffffff" font-family="Georgia" font-size="16px" x="120" y="170"><tspan dy="0" x="120"></tspan></text></svg>